<?xml version="1.0" encoding="UTF-8"?>
<svg id="uuid-c4a1a802-3903-4062-b216-c41699ab988c" data-name="圖層 2" xmlns="http://www.w3.org/2000/svg" viewBox="0 0 32 32">
  <path d="m26,9.96c-.83,0-1.5.67-1.5,1.5v15c0,.83-.67,1.5-1.5,1.5h-14c-.83,0-1.5-.67-1.5-1.5v-15c0-.83-.67-1.5-1.5-1.5s-1.5.67-1.5,1.5v15c0,2.48,2.02,4.5,4.5,4.5h14c2.48,0,4.5-2.02,4.5-4.5v-15c0-.83-.67-1.5-1.5-1.5Z" style="fill: #c9caca; stroke-width: 0px;"/>
  <path d="m28,5.54h-5.5v-3c0-.83-.67-1.5-1.5-1.5h-10c-.83,0-1.5.67-1.5,1.5v3h-5.5c-.83,0-1.5.67-1.5,1.5s.67,1.5,1.5,1.5h24c.83,0,1.5-.67,1.5-1.5s-.67-1.5-1.5-1.5Zm-15.5-1.5h7v1.5h-7v-1.5Z" style="fill: #c9caca; stroke-width: 0px;"/>
  <path d="m14.53,21.64v-8c0-.83-.67-1.5-1.5-1.5s-1.5.67-1.5,1.5v8c0,.83.67,1.5,1.5,1.5s1.5-.67,1.5-1.5Z" style="fill: #c9caca; stroke-width: 0px;"/>
  <path d="m20.47,21.64v-8c0-.83-.67-1.5-1.5-1.5s-1.5.67-1.5,1.5v8c0,.83.67,1.5,1.5,1.5s1.5-.67,1.5-1.5Z" style="fill: #c9caca; stroke-width: 0px;"/>
</svg>