<?xml version="1.0" encoding="UTF-8"?>
<svg id="uuid-a1341c30-676c-4456-831a-e2a9539aef89" data-name="圖層 2" xmlns="http://www.w3.org/2000/svg" viewBox="0 0 32 32">
  <path d="m16,0C7.16,0,0,7.16,0,16s7.16,16,16,16,16-7.16,16-16S24.84,0,16,0Zm11.17,21.51c0,1.11-.9,2-2,2H6.83c-1.1,0-2-.89-2-2v-11.02c0-1.11.9-2,2-2h18.34c1.1,0,2,.89,2,2v11.02Z" style="fill: #c9caca; stroke-width: 0px;"/>
  <polygon points="23.4 10.49 16 14.84 8.6 10.49 23.4 10.49" style="fill: #c9caca; stroke-width: 0px;"/>
  <path d="m25.17,11.77v9.74H6.83v-9.74l8.66,5.09c.16.09.34.14.51.14s.35-.05.51-.14l8.66-5.09Z" style="fill: #c9caca; stroke-width: 0px;"/>
</svg>