<?xml version="1.0" encoding="UTF-8"?>
<svg id="uuid-1a5d04fa-dfc1-4dd6-a4e8-fd10bb34efcd" data-name="圖層 2" xmlns="http://www.w3.org/2000/svg" viewBox="0 0 32 32">
  <path d="m29.44,4.42H2.56c-.83,0-1.5.67-1.5,1.5v20.16c0,.83.67,1.5,1.5,1.5h26.89c.83,0,1.5-.67,1.5-1.5V5.92c0-.83-.67-1.5-1.5-1.5Zm-1.5,3v5.07l-3.32-3.32c-.28-.28-.66-.44-1.06-.44s-.78.16-1.06.44l-9.59,9.59-4.11-4.12c-.28-.28-.66-.44-1.06-.44s-.78.16-1.06.44l-2.62,2.62V7.42h23.89ZM4.06,24.58v-3.08l3.68-3.68,4.11,4.12c.28.28.66.44,1.06.44s.78-.16,1.06-.44l9.59-9.59,4.33,4.33v7.9H4.06Z" style="fill: #c9caca; stroke-width: 0px;"/>
  <path d="m12.8,14.73c1.62,0,2.94-1.32,2.94-2.94s-1.32-2.94-2.94-2.94-2.94,1.32-2.94,2.94,1.32,2.94,2.94,2.94Z" style="fill: #c9caca; stroke-width: 0px;"/>
</svg>