<?xml version="1.0" encoding="UTF-8"?>
<svg id="uuid-4c442f05-1513-4fce-b3d2-e0583db6d64a" xmlns="http://www.w3.org/2000/svg" viewBox="0 0 144.34 132.13" class="w-[1em] h-[1em]">
  <g id="uuid-387575bf-bce0-4396-a9ef-d7a9d45a9338">
    <path d="m143.63,89.32c-.82-10.71-1.12-21.59-2.77-32.15l-.07-.38c-1.03-6.73-3.91-13.38-4.89-20.28-1.46-8.22,1.18-16.91-1.43-24.96-2.47-7.39-10.44-12.41-18.07-11.39-8.68,1.09-14.96,8.38-23.08,11.01-5.49,2-11.55,2.04-17.37,2.03-8.83-.15-18.03.71-25.5-2.17C42.53,8.28,36.05.95,27.54.1,18.84-.91,10.15,5.92,8.93,14.65c-1.01,6.35.32,12.9-.32,19.3-.51,7.43-3.87,15.22-5.1,22.6-1.49,8.43-1.75,16.75-2.48,26.71-.34,7.39-1.49,15.14-.83,22.47.57,9.22,8.67,12.86,16.62,14.56,13.01,3.24,26.33,6.56,39.11,9.71,12.66,3.65,25.75,2.22,38.23-1.43,12.56-3.26,26.19-6.19,38.72-9.85,13.69-3.88,11.77-15.47,10.75-29.4Z" style="fill: #545454; stroke-width: 0px;"/>
    <g>
      <path d="m42.88,65.99c-1.86,11.99-12.93,10.38-12.77-1.25.02-1.43.23-2.88.64-4.22,1.96-6.51,8.41-8.34,10.99-3.3,1.33,2.54,1.56,5.67,1.17,8.55l-.03.23Z" style="fill: #f5f5f5; stroke-width: 0px;"/>
      <path d="m101.46,65.99c1.86,11.99,12.93,10.38,12.77-1.25-.02-1.43-.23-2.88-.64-4.22-1.96-6.51-8.41-8.34-10.99-3.3-1.33,2.54-1.56,5.67-1.17,8.55l.03.23Z" style="fill: #f5f5f5; stroke-width: 0px;"/>
    </g>
    <path d="m72.18,113.54c-12.86.12-22.48-10.94-23.05-23.54-.49-6.83-.62-13.96.96-20.65,5.73-22.45,35.91-23.95,43.57-2.02,2.19,6.42,2.09,14.89,1.63,22.03-.4,12.8-9.87,24.18-22.92,24.17h-.19Z" style="fill: #f5f5f5; stroke-width: 0px;"/>
    <path d="m84.82,76.93l-.03.02c-1.82,1.6-5.12,3.03-7.59,4.25h-.02c-.88.43-1.56,1.17-1.93,2.07l-.88,2.17c-.3.74-.3,1.57-.01,2.31.1.24.26.45.46.6.2.15.45.25.71.27,2.97.26,6.61.83,6.27,2.51-.11.68-.77,1.13-1.43,1.02-2.7-.46-5.45-.68-8.2-.68-2.82,0-5.65.24-8.41.69-.59,0-1.12-.43-1.22-1.04-.33-1.69,3.3-2.25,6.27-2.51.53-.05.98-.39,1.17-.88h0c.29-.74.28-1.57-.01-2.31l-.88-2.18c-.37-.91-1.06-1.65-1.95-2.07-1.28-.6-2.57-1.25-3.8-1.87-3.14-1.57-6.23-3.58-5.67-7.23.4-2.73,3.24-4.24,5.81-4.73,2.87-.5,5.79-.65,8.71-.63,1.76.01,3.53.09,5.28.19,2.35.19,4.81.47,6.83,1.73,3.12,1.89,3.28,5.96.54,8.28Z" style="fill: #545454; stroke-width: 0px;"/>
  </g>
</svg>