<?xml version="1.0" encoding="UTF-8"?>
<svg id="uuid-bc973033-9dbf-4b03-935d-23b48fd57e45" data-name="圖層 2" xmlns="http://www.w3.org/2000/svg" viewBox="0 0 32 32">
  <path d="m26,9.96c-.83,0-1.5.67-1.5,1.5v15c0,.83-.67,1.5-1.5,1.5h-14c-.83,0-1.5-.67-1.5-1.5v-15c0-.83-.67-1.5-1.5-1.5s-1.5.67-1.5,1.5v15c0,2.48,2.02,4.5,4.5,4.5h14c2.48,0,4.5-2.02,4.5-4.5v-15c0-.83-.67-1.5-1.5-1.5Z" style="fill: #c9caca; stroke-width: 0px;"/>
  <path d="m27.86,6.79l-5.47-.57.31-2.99c.09-.82-.51-1.56-1.33-1.65L11.42.54c-.82-.09-1.56.51-1.65,1.33l-.31,2.99-5.47-.57c-.82-.09-1.56.51-1.65,1.33s.51,1.56,1.33,1.65l23.87,2.51c.82.09,1.56-.51,1.65-1.33s-.51-1.56-1.33-1.65Zm-15.26-3.12l6.96.73-.16,1.5-6.96-.73.16-1.5Z" style="fill: #c9caca; stroke-width: 0px;"/>
  <path d="m14.53,21.64v-8c0-.83-.67-1.5-1.5-1.5s-1.5.67-1.5,1.5v8c0,.83.67,1.5,1.5,1.5s1.5-.67,1.5-1.5Z" style="fill: #c9caca; stroke-width: 0px;"/>
  <path d="m20.47,21.64v-8c0-.83-.67-1.5-1.5-1.5s-1.5.67-1.5,1.5v8c0,.83.67,1.5,1.5,1.5s1.5-.67,1.5-1.5Z" style="fill: #c9caca; stroke-width: 0px;"/>
</svg>