<?xml version="1.0" encoding="UTF-8"?>
<svg id="uuid-a973960c-f947-4ce5-a0d2-e1d68061677f" data-name="圖層 2" xmlns="http://www.w3.org/2000/svg" viewBox="0 0 32 32">
  <rect x="2" y="2" width="28" height="8.33" rx="1" ry="1" style="fill: #c9caca; stroke-width: 0px;"/>
  <path d="m27,24.67v2.33H5v-2.33h22m2-3H3c-.55,0-1,.45-1,1v6.33c0,.55.45,1,1,1h26c.55,0,1-.45,1-1v-6.33c0-.55-.45-1-1-1h0Z" style="fill: #c9caca; stroke-width: 0px;"/>
  <path d="m27,14.83v2.33H5v-2.33h22m2-3H3c-.55,0-1,.45-1,1v6.33c0,.55.45,1,1,1h26c.55,0,1-.45,1-1v-6.33c0-.55-.45-1-1-1h0Z" style="fill: #c9caca; stroke-width: 0px;"/>
</svg>