<?xml version="1.0" encoding="UTF-8"?>
<svg id="uuid-aba232e2-4291-4166-a3d3-ff586398926d" data-name="圖層 2" xmlns="http://www.w3.org/2000/svg" viewBox="0 0 32 32">
  <path d="m28.35,7.7c.01-1.75.01-3.5,0-5.25,0-.88-.55-1.46-1.34-1.47-.81-.01-1.35.54-1.37,1.43-.01.61,0,1.23,0,1.9-.13-.04-.16-.04-.17-.05-.19-.14-.38-.27-.57-.41-3.37-2.41-7.12-3.31-11.21-2.68C7.74,2.08,2.86,6.61,1.47,12.41c-1.43,5.98.82,12.16,5.76,15.73,2.58,1.86,5.47,2.83,8.66,2.85.76,0,1.25-.31,1.45-.91.33-.97-.34-1.79-1.5-1.81-7.38-.16-12.93-6.61-11.97-13.9C5.08,5.22,15.65.61,23.14,5.97c.14.1.28.23.55.45-.81,0-1.44-.02-2.07,0-.88.03-1.46.58-1.47,1.37,0,.78.58,1.37,1.45,1.38,1.77.02,3.54.02,5.31,0,.89-.01,1.42-.58,1.43-1.47Z" style="fill: #c9caca; stroke-width: 0px;"/>
  <path d="m21.11,21.06c.57-.56.56-1.37-.05-2-1.07-1.1-2.18-2.16-3.24-3.27-.21-.22-.36-.58-.36-.88-.03-2.26-.01-4.52-.02-6.78,0-1.06-.55-1.72-1.4-1.7-.83.01-1.35.65-1.36,1.68,0,1.26,0,2.52,0,3.77,0,1.28,0,2.56,0,3.84,0,.57.18,1.02.59,1.43,1.26,1.24,2.51,2.5,3.76,3.75.03.03.06.06.09.09.65.6,1.43.63,2,.08Z" style="fill: #c9caca; stroke-width: 0px;"/>
  <path d="m25.71,24.28c-.76,0-1.34.56-1.35,1.32-.01.78.59,1.4,1.35,1.4.73,0,1.35-.6,1.36-1.33.02-.77-.59-1.39-1.36-1.39Z" style="fill: #c9caca; stroke-width: 0px;"/>
  <path d="m28.67,19.86c-.73,0-1.34.61-1.35,1.35-.01.76.61,1.4,1.37,1.4.73,0,1.34-.6,1.35-1.35.01-.77-.61-1.4-1.36-1.4Z" style="fill: #c9caca; stroke-width: 0px;"/>
  <path d="m29.71,14.63c-.76,0-1.38.64-1.36,1.4.02.73.63,1.34,1.36,1.34.75,0,1.37-.64,1.36-1.4-.01-.74-.61-1.34-1.35-1.34Z" style="fill: #c9caca; stroke-width: 0px;"/>
  <path d="m21.32,27.26c-.76-.02-1.41.6-1.41,1.35,0,.76.62,1.37,1.39,1.36.76,0,1.33-.59,1.34-1.34,0-.75-.57-1.35-1.31-1.37Z" style="fill: #c9caca; stroke-width: 0px;"/>
</svg>