<?xml version="1.0" encoding="UTF-8"?>
<svg id="uuid-5037195b-8cdf-4b5b-acef-f2cf580c9df0" data-name="圖層 2" xmlns="http://www.w3.org/2000/svg" viewBox="0 0 32 32">
  <path d="m30.98,21.12c-.01-1.14-.64-1.77-1.77-1.79-2.14-.03-4.28-.02-6.42,0-1.09.01-1.81.72-1.8,1.68.01.95.76,1.63,1.83,1.65.88.01,1.77,0,2.78,0-3.11,4.61-9.53,6.27-14.6,3.82-3.69-1.78-5.89-4.74-6.62-8.78-.21-1.18-.99-1.85-1.97-1.69-1,.17-1.54,1.05-1.32,2.22,1.16,6.07,4.65,10.23,10.54,12.03,5.94,1.81,11.16.25,15.52-4.17.12-.12.16-.33.23-.51.09.07.17.13.26.2,0,.56,0,1.12,0,1.68.02,1.09.68,1.83,1.63,1.85.96.02,1.68-.69,1.7-1.78.03-2.14.03-4.28,0-6.42Z" style="fill: #c9caca; stroke-width: 0px;"/>
  <path d="m2.76,12.67c2.17.04,4.33.03,6.5,0,1.04-.01,1.75-.72,1.76-1.65.01-.95-.74-1.66-1.8-1.68-.89-.02-1.78,0-2.77,0,2.08-3.47,7.21-5.58,11.44-4.81,5.19.95,8.84,4.65,9.77,9.88.19,1.07.96,1.71,1.9,1.58.96-.13,1.52-.94,1.39-2.02-.02-.19-.03-.38-.07-.56-1.3-5.85-4.73-9.9-10.46-11.66C14.64-.03,9.51,1.41,5.16,5.58c-.22.21-.4.47-.59.71-.07-.04-.13-.09-.2-.13,0-.56.02-1.12,0-1.68-.04-1.08-.74-1.81-1.7-1.8-.95.01-1.65.76-1.66,1.83-.02,2.11-.02,4.22,0,6.34,0,1.13.63,1.8,1.75,1.82Z" style="fill: #c9caca; stroke-width: 0px;"/>
</svg>