<?xml version="1.0" encoding="UTF-8"?>
<svg id="uuid-08995d2d-14c8-48b4-b27d-1341311f076b" data-name="圖層 2" xmlns="http://www.w3.org/2000/svg" viewBox="0 0 32 32">
  <path d="m28.19,11.29c0-.91-.31-1.63-.95-2.26-2.35-2.33-4.7-4.66-7.02-7.02-.69-.7-1.47-1.01-2.45-1.01-3.24.02-6.49,0-9.73,0-2.67,0-4.23,1.55-4.23,4.21,0,3.59,0,7.18,0,10.78,0,3.61,0,7.23,0,10.84,0,2.57,1.58,4.16,4.15,4.16,5.38,0,10.76,0,16.13,0,2.48,0,4.08-1.61,4.08-4.09,0-5.2,0-10.41.01-15.61Zm-8.32-6.43c1.47,1.47,2.97,2.97,4.48,4.48-.99,0-2.05.04-3.1-.02-.7-.04-1.3-.64-1.35-1.38-.07-1.05-.02-2.11-.02-3.08Zm4.15,24.04c-5.35,0-10.71,0-16.06,0-1.39,0-2.05-.65-2.05-2.03,0-7.25,0-14.49,0-21.74,0-1.3.64-2.01,1.86-2.02,3.2-.02,6.4,0,9.6,0,.08,0,.17.02.36.04,0,1.5-.02,2.96,0,4.41.03,1.89,1.2,3.39,2.97,3.8.4.09.82.09,1.23.1,1.35.01,2.69,0,4.11,0,.02.27.04.5.04.73,0,4.87,0,9.75,0,14.62,0,1.43-.64,2.08-2.06,2.08Z" style="fill: #c9caca; stroke-width: 0px;"/>
  <path d="m20.4,14.98c-.56-.13-1.09.22-1.26.86-.28,1.05-.53,2.11-.8,3.16-.03.12-.1.24-.19.44-.39-.96-.75-1.82-1.08-2.7-.19-.5-.47-.89-1.06-.89-.6,0-.88.36-1.08.87-.34.89-.71,1.77-1.11,2.75-.09-.24-.15-.38-.18-.52-.26-1.01-.51-2.02-.77-3.03-.19-.72-.73-1.09-1.32-.93-.61.17-.88.73-.7,1.46.53,2.13,1.07,4.25,1.59,6.39.14.59.33,1.1,1.03,1.16.71.06.98-.42,1.2-.98.41-1.04.83-2.08,1.32-3.3.52,1.28.96,2.37,1.39,3.46.2.52.51.86,1.11.83.6-.03.88-.42,1.01-.95.56-2.23,1.12-4.47,1.67-6.7.16-.66-.18-1.23-.77-1.37Z" style="fill: #c9caca; stroke-width: 0px;"/>
</svg>